<svg width="263" height="171" viewBox="0 0 263 171" fill="none" xmlns="http://www.w3.org/2000/svg">
<path d="M85.6713 31.3383L61.7263 154.31L58.6148 170.409L218.248 169.638C225.418 169.604 231.776 163.239 234.069 153.782L262.384 37.6898C264.136 30.5131 260.294 23.0455 254.856 23.0523L93.2471 23.2214C89.7298 23.2146 86.5777 26.5425 85.6713 31.3383Z" fill="#A0C3D9"/>
<path d="M202.954 145.963L186.044 9.72688C185.368 4.14647 180.91 -0.0202186 175.654 7.38003e-05L138.587 0.115063C137.209 0.13059 135.85 0.426469 134.59 0.984668C133.331 1.54287 132.198 2.35168 131.261 3.36183L113.675 22.0782L10.5894 22.6328C4.29203 22.6666 -0.551091 28.6326 0.280896 35.3291L15.9804 161.243C16.6568 166.817 21.1144 170.977 26.3566 170.97L206.046 170.612C226.054 171.024 227.968 165.119 227.968 165.119C204.997 170.199 202.954 145.997 202.954 145.963Z" fill="#C8DCE9"/>
<g opacity="0.5">
<path d="M125.471 118.718L119.41 125.225L72.7378 83.2329L78.7984 76.7258L125.471 118.718Z" fill="#EDF3F8"/>
<path d="M116.873 75.2849L123.57 81.3117L81.3415 126.665L74.6382 120.638L116.873 75.2849Z" fill="#EDF3F8"/>
</g>
</svg>
