<svg id="Capa_2" data-name="Capa 2" xmlns="http://www.w3.org/2000/svg" viewBox="0 0 23 23"><defs><style>.cls-1{fill1:#2b2e34;}</style></defs><g id="Group_2895" data-name="Group 2895"><path id="Path_1266" data-name="Path 1266" class="cls-1" d="M13.69,1.51A8.35,8.35,0,0,0,7.39,9a7.62,7.62,0,0,0,3.92,8c3.42,2,6.71,1.43,9.8-1.06a2.73,2.73,0,0,1-.05.4,4.6,4.6,0,0,1-1,1.71,10.25,10.25,0,0,1-6.35,3.75A9.75,9.75,0,0,1,8,20.94a9.83,9.83,0,0,1-4.88-4.53A10.16,10.16,0,0,1,2,10.25,10.19,10.19,0,0,1,6.5,2.83a9.44,9.44,0,0,1,5.73-1.67,2.75,2.75,0,0,1,1.46.35"/></g></svg>