<svg id="Capa_5" data-name="Capa 5" xmlns="http://www.w3.org/2000/svg" viewBox="0 0 23 23"><defs><style>.cls-1{fill:#fff;}.cls-2{fill1:#2b2e34;}</style></defs><g id="Group_2894" data-name="Group 2894"><path id="Path_1278" data-name="Path 1278" class="cls-1" d="M16.65,11.51a5.19,5.19,0,0,0-5.08-5.29h-.09a5.21,5.21,0,0,0-5.26,5.14v.13a5.2,5.2,0,0,0,5.08,5.29h.11a5.17,5.17,0,0,0,5.24-5.11v-.16"/><path id="Path_1279" data-name="Path 1279" class="cls-1" d="M11.47,23c.57-1.8,1.11-3.58,1.57-5.46H9.8c.53,1.83,1,3.67,1.67,5.46"/><path id="Path_1280" data-name="Path 1280" class="cls-1" d="M11.55,0h-.18Q10.58,2.73,9.8,5.48h3.26c-.51-1.85-1-3.66-1.51-5.47"/><path id="Path_1281" data-name="Path 1281" class="cls-1" d="M17.26,1.62a50.29,50.29,0,0,0-4.1,4,9.3,9.3,0,0,1,2.65,1.56,32.81,32.81,0,0,0,1.45-5.59"/><path id="Path_1282" data-name="Path 1282" class="cls-1" d="M5.66,1.51a2.5,2.5,0,0,0,0,.47C6.1,3.72,6.48,5.47,7,7.25c.49-.34.9-.65,1.34-.9s.94-.47,1.47-.74L5.66,1.51"/><path id="Path_1283" data-name="Path 1283" class="cls-1" d="M15.71,16c1.42.43,2.87.72,4.29,1.1.41.11.82.18,1.23.26A11.64,11.64,0,0,0,20,15.89c-.43-.44-.86-.88-1.3-1.31a16.45,16.45,0,0,0-1.34-1.3L15.71,16"/><path id="Path_1284" data-name="Path 1284" class="cls-1" d="M7,15.88c-.08.2-.15.39-.21.58-.1.38-.18.76-.28,1.14-.28,1.09-.57,2.19-.86,3.29a.46.46,0,0,0,.08.5l4-3.93L7,15.88"/><path id="Path_1285" data-name="Path 1285" class="cls-1" d="M7.18,16,5.59,13.28a.31.31,0,0,0-.13.06c-1.28,1.29-2.55,2.59-3.83,3.89a0,0,0,0,0,0,.05l.06.1C3.5,17,5.32,16.49,7.18,16"/><path id="Path_1286" data-name="Path 1286" class="cls-1" d="M1.67,5.7A21.24,21.24,0,0,0,3.6,7.79c.67.65,1.25,1.39,2,2.06A9.08,9.08,0,0,1,7.28,7c-1.92-.49-3.72-1-5.61-1.34"/><path id="Path_1287" data-name="Path 1287" class="cls-1" d="M21.31,5.74l-.08-.15L15.69,7c.34.5.65.91.91,1.36s.44.93.71,1.48l4-4.13"/><path id="Path_1288" data-name="Path 1288" class="cls-1" d="M17.44,10v3.13c1.68-.4,3.3-.92,4.94-1.35l.62-.19A45.13,45.13,0,0,0,17.44,10"/><path id="Path_1289" data-name="Path 1289" class="cls-1" d="M13.17,17.37a51.44,51.44,0,0,0,4.15,4.07c0-.21-.05-.37-.09-.52l-1.17-4.59a4.89,4.89,0,0,0-.2-.48c-.46.3-.87.59-1.31.83s-.89.45-1.38.69"/><path id="Path_1290" data-name="Path 1290" class="cls-1" d="M5.43,13.13V9.91c-.9.24-1.81.46-2.7.73S.89,11.1,0,11.45v.13l5.43,1.55"/><path id="Path_1291" data-name="Path 1291" class="cls-2" d="M16.65,11.51a5.17,5.17,0,0,1-5.08,5.27h-.16A5.19,5.19,0,0,1,6.22,11.6v-.11a5.19,5.19,0,0,1,5.13-5.26h.13a5.19,5.19,0,0,1,5.17,5.21v.08"/><path id="Path_1292" data-name="Path 1292" class="cls-2" d="M11.47,23c-.66-1.79-1.14-3.63-1.67-5.46H13c-.46,1.88-1,3.66-1.57,5.46"/><path id="Path_1293" data-name="Path 1293" class="cls-2" d="M11.55,0c.51,1.81,1,3.62,1.51,5.47H9.8L11.37,0h.18"/><path id="Path_1294" data-name="Path 1294" class="cls-2" d="M17.26,1.62a32.81,32.81,0,0,1-1.45,5.59,9.3,9.3,0,0,0-2.65-1.56,50.29,50.29,0,0,1,4.1-4"/><path id="Path_1295" data-name="Path 1295" class="cls-2" d="M5.66,1.51,9.8,5.61c-.53.26-1,.47-1.46.74s-.86.57-1.35.9C6.48,5.47,6.1,3.72,5.64,2a2.5,2.5,0,0,1,0-.47"/><path id="Path_1296" data-name="Path 1296" class="cls-2" d="M15.71,16l1.64-2.73a15.1,15.1,0,0,1,1.35,1.3c.44.43.87.87,1.3,1.31a10.78,10.78,0,0,1,1.22,1.48c-.4-.08-.81-.15-1.22-.26-1.42-.38-2.87-.67-4.29-1.1"/><path id="Path_1297" data-name="Path 1297" class="cls-2" d="M7,15.88l2.76,1.58-4,3.94a.48.48,0,0,1-.08-.51c.29-1.1.57-2.2.86-3.29.1-.38.18-.76.28-1.13.06-.2.13-.39.21-.59"/><path id="Path_1298" data-name="Path 1298" class="cls-2" d="M7.18,16c-1.86.46-3.68.94-5.49,1.35a.86.86,0,0,1-.07-.1v-.05l3.84-3.89a.31.31,0,0,1,.13-.06L7.18,16"/><path id="Path_1299" data-name="Path 1299" class="cls-2" d="M1.67,5.7c1.89.35,3.69.85,5.61,1.34a9.14,9.14,0,0,0-1.66,2.8c-.77-.67-1.35-1.41-2-2.06A20.05,20.05,0,0,1,1.67,5.7"/><path id="Path_1300" data-name="Path 1300" class="cls-2" d="M21.31,5.74l-4,4.13c-.26-.55-.46-1-.71-1.48S16,7.53,15.69,7l5.54-1.44.08.15"/><path id="Path_1301" data-name="Path 1301" class="cls-2" d="M17.44,10A45.13,45.13,0,0,1,23,11.55l-.62.19c-1.64.43-3.26.95-4.94,1.35Z"/><path id="Path_1302" data-name="Path 1302" class="cls-2" d="M13.17,17.37c.49-.24.95-.44,1.38-.69s.85-.53,1.31-.83a4.89,4.89,0,0,1,.2.48l1.17,4.59c0,.15.05.31.09.52a51.44,51.44,0,0,1-4.15-4.07"/><path id="Path_1303" data-name="Path 1303" class="cls-2" d="M5.43,13.13,0,11.59v-.13c.89-.35,1.82-.54,2.73-.81s1.81-.49,2.7-.72Z"/></g></svg>