<svg width="25" height="25" viewBox="0 0 25 25" xmlns="http://www.w3.org/2000/svg">
<g id="adaptive_audio_mic">
<mask id="mask0_957_10674" style="mask-type:alpha" maskUnits="userSpaceOnUse" x="0" y="0" width="25" height="25">
<rect id="Bounding box" x="0.200195" y="0.367676" width="24" height="24" fill="#D9D9D9"/>
</mask>
<g mask="url(#mask0_957_10674)">
<path id="adaptive_audio_mic_2" d="M12.2002 17.3677C11.6502 17.3677 11.1794 17.1718 10.7877 16.7802C10.396 16.3885 10.2002 15.9177 10.2002 15.3677V12.3677C10.2002 11.8177 10.396 11.3468 10.7877 10.9552C11.1794 10.5635 11.6502 10.3677 12.2002 10.3677C12.7502 10.3677 13.221 10.5635 13.6127 10.9552C14.0044 11.3468 14.2002 11.8177 14.2002 12.3677V15.3677C14.2002 15.9177 14.0044 16.3885 13.6127 16.7802C13.221 17.1718 12.7502 17.3677 12.2002 17.3677ZM12.2002 18.8677C13.0502 18.8677 13.7919 18.601 14.4252 18.0677C15.0585 17.5343 15.4669 16.8343 15.6502 15.9677C15.6835 15.7843 15.7669 15.6385 15.9002 15.5302C16.0335 15.4218 16.1919 15.3677 16.3752 15.3677C16.6085 15.3677 16.8002 15.4552 16.9502 15.6302C17.1002 15.8052 17.1585 16.0093 17.1252 16.2427C16.9752 17.2593 16.5127 18.151 15.7377 18.9177C14.9627 19.6843 14.0335 20.151 12.9502 20.3177V21.6177C12.9502 21.8343 12.8794 22.0135 12.7377 22.1552C12.596 22.2968 12.4169 22.3677 12.2002 22.3677C11.9835 22.3677 11.8044 22.2968 11.6627 22.1552C11.521 22.0135 11.4502 21.8343 11.4502 21.6177V20.3177C10.3669 20.151 9.4377 19.6843 8.6627 18.9177C7.8877 18.151 7.4252 17.2593 7.2752 16.2427C7.24186 16.0093 7.3002 15.8052 7.4502 15.6302C7.6002 15.4552 7.79186 15.3677 8.0252 15.3677C8.20853 15.3677 8.36686 15.4218 8.5002 15.5302C8.63353 15.6385 8.71686 15.7843 8.7502 15.9677C8.93353 16.8343 9.34186 17.5343 9.9752 18.0677C10.6085 18.601 11.3502 18.8677 12.2002 18.8677ZM2.2002 14.3677C1.91686 14.3677 1.67936 14.2718 1.4877 14.0802C1.29603 13.8885 1.2002 13.651 1.2002 13.3677V12.7927C1.2002 12.2093 1.32103 11.6885 1.5627 11.2302C1.80436 10.7718 2.14186 10.426 2.5752 10.1927C3.24186 9.84268 3.95853 9.57601 4.7252 9.39268C5.49186 9.20934 6.31686 9.11768 7.2002 9.11768C7.46686 9.11768 7.7252 9.12601 7.9752 9.14268C8.2252 9.15934 8.4752 9.18434 8.7252 9.21768C8.8752 9.25101 8.9627 9.33851 8.9877 9.48018C9.0127 9.62184 8.95853 9.73434 8.8252 9.81768C8.0752 10.2677 7.44186 10.8427 6.9252 11.5427C6.40853 12.2427 6.05853 13.0177 5.8752 13.8677C5.84186 14.001 5.76686 14.1177 5.6502 14.2177C5.53353 14.3177 5.40853 14.3677 5.2752 14.3677H2.2002ZM19.1252 14.3677C18.9919 14.3677 18.8669 14.3177 18.7502 14.2177C18.6335 14.1177 18.5585 14.001 18.5252 13.8677C18.3419 13.0177 17.996 12.2427 17.4877 11.5427C16.9794 10.8427 16.3502 10.2677 15.6002 9.81768C15.4669 9.73434 15.4127 9.62184 15.4377 9.48018C15.4627 9.33851 15.5419 9.25101 15.6752 9.21768C15.9252 9.18434 16.1752 9.15934 16.4252 9.14268C16.6752 9.12601 16.9335 9.11768 17.2002 9.11768C18.0835 9.11768 18.9085 9.20934 19.6752 9.39268C20.4419 9.57601 21.1585 9.84268 21.8252 10.1927C22.2585 10.426 22.596 10.7718 22.8377 11.2302C23.0794 11.6885 23.2002 12.2093 23.2002 12.7927V13.3677C23.2002 13.651 23.1044 13.8885 22.9127 14.0802C22.721 14.2718 22.4835 14.3677 22.2002 14.3677H19.1252ZM7.2002 8.36768C6.36686 8.36768 5.65853 8.07601 5.0752 7.49268C4.49186 6.90934 4.2002 6.20101 4.2002 5.36768C4.2002 4.53434 4.49186 3.82601 5.0752 3.24268C5.65853 2.65934 6.36686 2.36768 7.2002 2.36768C8.03353 2.36768 8.74186 2.65934 9.3252 3.24268C9.90853 3.82601 10.2002 4.53434 10.2002 5.36768C10.2002 6.20101 9.90853 6.90934 9.3252 7.49268C8.74186 8.07601 8.03353 8.36768 7.2002 8.36768ZM17.2002 8.36768C16.3669 8.36768 15.6585 8.07601 15.0752 7.49268C14.4919 6.90934 14.2002 6.20101 14.2002 5.36768C14.2002 4.53434 14.4919 3.82601 15.0752 3.24268C15.6585 2.65934 16.3669 2.36768 17.2002 2.36768C18.0335 2.36768 18.7419 2.65934 19.3252 3.24268C19.9085 3.82601 20.2002 4.53434 20.2002 5.36768C20.2002 6.20101 19.9085 6.90934 19.3252 7.49268C18.7419 8.07601 18.0335 8.36768 17.2002 8.36768Z" />
</g>
</g>
</svg>
