<svg width="25" height="24" viewBox="0 0 25 24" xmlns="http://www.w3.org/2000/svg">
<g id="apartment">
<mask id="mask0_1859_8192" style="mask-type:alpha" maskUnits="userSpaceOnUse" x="0" y="0" width="25" height="24">
<rect id="Bounding box" x="0.200195" width="24" height="24" fill="#D9D9D9"/>
</mask>
<g mask="url(#mask0_1859_8192)">
<path id="apartment_2" d="M5.2002 21C4.6502 21 4.17936 20.8042 3.7877 20.4125C3.39603 20.0208 3.2002 19.55 3.2002 19V9C3.2002 8.45 3.39603 7.97917 3.7877 7.5875C4.17936 7.19583 4.6502 7 5.2002 7H7.2002V5C7.2002 4.45 7.39603 3.97917 7.7877 3.5875C8.17936 3.19583 8.6502 3 9.2002 3H15.2002C15.7502 3 16.221 3.19583 16.6127 3.5875C17.0044 3.97917 17.2002 4.45 17.2002 5V11H19.2002C19.7502 11 20.221 11.1958 20.6127 11.5875C21.0044 11.9792 21.2002 12.45 21.2002 13V19C21.2002 19.55 21.0044 20.0208 20.6127 20.4125C20.221 20.8042 19.7502 21 19.2002 21H13.2002V17H11.2002V21H5.2002ZM5.2002 19H7.2002V17H5.2002V19ZM5.2002 15H7.2002V13H5.2002V15ZM5.2002 11H7.2002V9H5.2002V11ZM9.2002 15H11.2002V13H9.2002V15ZM9.2002 11H11.2002V9H9.2002V11ZM9.2002 7H11.2002V5H9.2002V7ZM13.2002 15H15.2002V13H13.2002V15ZM13.2002 11H15.2002V9H13.2002V11ZM13.2002 7H15.2002V5H13.2002V7ZM17.2002 19H19.2002V17H17.2002V19ZM17.2002 15H19.2002V13H17.2002V15Z" />
</g>
</g>
</svg>
