<svg width="25" height="25" viewBox="0 0 25 25" xmlns="http://www.w3.org/2000/svg">
<g id="Checkbook">
<path id="Vector" d="M21.9732 14.9232L15.6232 21.2732C15.5232 21.3732 15.4107 21.4482 15.2857 21.4982C15.1607 21.5482 15.0316 21.5732 14.8982 21.5732H14.0732C13.9399 21.5732 13.8232 21.5232 13.7232 21.4232C13.6232 21.3232 13.5732 21.2066 13.5732 21.0732V20.2482C13.5732 20.1149 13.5982 19.9857 13.6482 19.8607C13.6982 19.7357 13.7732 19.6232 13.8732 19.5232L20.2232 13.1732L21.9732 14.9232ZM2.57324 17.5732V7.57324C2.57324 7.02324 2.76908 6.55241 3.16074 6.16074C3.55241 5.76908 4.02324 5.57324 4.57324 5.57324H20.5732C21.1232 5.57324 21.5941 5.76908 21.9857 6.16074C22.3774 6.55241 22.5732 7.02324 22.5732 7.57324V8.57324H20.5732L15.5732 13.5732H7.57324C7.28991 13.5732 7.05241 13.6691 6.86074 13.8607C6.66908 14.0524 6.57324 14.2899 6.57324 14.5732C6.57324 14.8566 6.66908 15.0941 6.86074 15.2857C7.05241 15.4774 7.28991 15.5732 7.57324 15.5732H13.5732L9.57324 19.5732H4.57324C4.02324 19.5732 3.55241 19.3774 3.16074 18.9857C2.76908 18.5941 2.57324 18.1232 2.57324 17.5732ZM7.57324 11.5732H11.5732C11.8566 11.5732 12.0941 11.4774 12.2857 11.2857C12.4774 11.0941 12.5732 10.8566 12.5732 10.5732C12.5732 10.2899 12.4774 10.0524 12.2857 9.86074C12.0941 9.66908 11.8566 9.57324 11.5732 9.57324H7.57324C7.28991 9.57324 7.05241 9.66908 6.86074 9.86074C6.66908 10.0524 6.57324 10.2899 6.57324 10.5732C6.57324 10.8566 6.66908 11.0941 6.86074 11.2857C7.05241 11.4774 7.28991 11.5732 7.57324 11.5732ZM22.5732 14.3232L20.8232 12.5732L21.7232 11.6732C21.8066 11.5899 21.8982 11.5482 21.9982 11.5482C22.0982 11.5482 22.1899 11.5899 22.2732 11.6732L23.4732 12.8732C23.5566 12.9566 23.5982 13.0482 23.5982 13.1482C23.5982 13.2482 23.5566 13.3399 23.4732 13.4232L22.5732 14.3232Z" />
</g>
</svg>
