<svg width="25" height="24" viewBox="0 0 25 24" fill="none" xmlns="http://www.w3.org/2000/svg">
<g id="cycle">
<mask id="mask0_1859_8184" style="mask-type:alpha" maskUnits="userSpaceOnUse" x="0" y="0" width="25" height="24">
<rect id="Bounding box" x="0.200195" width="24" height="24" fill="#D9D9D9"/>
</mask>
<g mask="url(#mask0_1859_8184)">
<path id="cycle_2" d="M4.20017 12.025C4.20017 13.4417 4.55433 14.7583 5.26267 15.975C5.971 17.1917 6.9335 18.1667 8.15017 18.9C8.3835 19.05 8.546 19.2542 8.63767 19.5125C8.72933 19.7708 8.7085 20.0167 8.57517 20.25C8.44183 20.5 8.23767 20.6625 7.96267 20.7375C7.68767 20.8125 7.42517 20.7833 7.17517 20.65C5.62517 19.75 4.4085 18.5333 3.52517 17C2.64183 15.4667 2.20017 13.8083 2.20017 12.025C2.20017 11.5917 2.22933 11.1667 2.28767 10.75C2.346 10.3333 2.42517 9.91667 2.52517 9.5L2.20017 9.7C1.96683 9.85 1.71683 9.8875 1.45017 9.8125C1.1835 9.7375 0.983501 9.58333 0.850168 9.35C0.716835 9.11667 0.687668 8.8625 0.762668 8.5875C0.837668 8.3125 0.991835 8.10833 1.22517 7.975L4.25017 6.225C4.4835 6.09167 4.73767 6.0625 5.01267 6.1375C5.28767 6.2125 5.49183 6.36667 5.62517 6.6L7.37517 9.6C7.5085 9.83333 7.53767 10.0875 7.46267 10.3625C7.38767 10.6375 7.2335 10.8417 7.00017 10.975C6.76683 11.1083 6.51267 11.1375 6.23767 11.0625C5.96267 10.9875 5.7585 10.8333 5.62517 10.6L4.77517 9.125C4.59183 9.59167 4.45017 10.0667 4.35017 10.55C4.25017 11.0333 4.20017 11.525 4.20017 12.025ZM12.2002 4C11.5168 4 10.8418 4.0875 10.1752 4.2625C9.5085 4.4375 8.87517 4.69167 8.27517 5.025C8.02517 5.15833 7.76267 5.20417 7.48767 5.1625C7.21267 5.12083 7.0085 4.98333 6.87517 4.75C6.72517 4.48333 6.69183 4.2125 6.77517 3.9375C6.8585 3.6625 7.0335 3.45 7.30017 3.3C8.05017 2.86667 8.83767 2.54167 9.66267 2.325C10.4877 2.10833 11.3335 2 12.2002 2C13.5168 2 14.7793 2.24583 15.9877 2.7375C17.196 3.22917 18.2752 3.94167 19.2252 4.875V4.5C19.2252 4.21667 19.321 3.97917 19.5127 3.7875C19.7043 3.59583 19.9418 3.5 20.2252 3.5C20.5085 3.5 20.746 3.59583 20.9377 3.7875C21.1293 3.97917 21.2252 4.21667 21.2252 4.5V8C21.2252 8.28333 21.1293 8.52083 20.9377 8.7125C20.746 8.90417 20.5085 9 20.2252 9H16.7252C16.4418 9 16.2043 8.90417 16.0127 8.7125C15.821 8.52083 15.7252 8.28333 15.7252 8C15.7252 7.71667 15.821 7.47917 16.0127 7.2875C16.2043 7.09583 16.4418 7 16.7252 7H18.4502C17.6835 6.05 16.7585 5.3125 15.6752 4.7875C14.5918 4.2625 13.4335 4 12.2002 4ZM18.2502 17.275C18.8835 16.5417 19.3668 15.7333 19.7002 14.85C20.0335 13.9667 20.2002 13.0417 20.2002 12.075C20.2002 11.7917 20.296 11.5417 20.4877 11.325C20.6793 11.1083 20.9168 11 21.2002 11C21.4835 11 21.721 11.1083 21.9127 11.325C22.1043 11.5417 22.2002 11.7917 22.2002 12.075C22.2002 13.1583 22.0293 14.2042 21.6877 15.2125C21.346 16.2208 20.8502 17.1583 20.2002 18.025C19.5502 18.8917 18.7793 19.6333 17.8877 20.25C16.996 20.8667 16.0252 21.325 14.9752 21.625L15.2252 21.775C15.4585 21.9083 15.6085 22.1125 15.6752 22.3875C15.7418 22.6625 15.7085 22.9167 15.5752 23.15C15.4418 23.3833 15.2418 23.5333 14.9752 23.6C14.7085 23.6667 14.4585 23.6333 14.2252 23.5L11.1752 21.75C10.9418 21.6167 10.7877 21.4125 10.7127 21.1375C10.6377 20.8625 10.6668 20.6083 10.8002 20.375L12.5502 17.35C12.6835 17.1167 12.8835 16.9667 13.1502 16.9C13.4168 16.8333 13.6668 16.8667 13.9002 17C14.1335 17.1333 14.2877 17.3375 14.3627 17.6125C14.4377 17.8875 14.4085 18.1417 14.2752 18.375L13.3502 19.95C14.3002 19.8167 15.196 19.5208 16.0377 19.0625C16.8793 18.6042 17.6168 18.0083 18.2502 17.275Z" fill="#040B15"/>
</g>
</g>
</svg>
