<svg width="25" height="24" viewBox="0 0 25 24" fill="none" xmlns="http://www.w3.org/2000/svg">
<g id="developer_guide">
<mask id="mask0_1859_8199" style="mask-type:alpha" maskUnits="userSpaceOnUse" x="0" y="0" width="25" height="24">
<rect id="Bounding box" x="0.200195" width="24" height="24" fill="#D9D9D9"/>
</mask>
<g mask="url(#mask0_1859_8199)">
<path id="developer_guide_2" d="M5.2002 21C4.6502 21 4.17936 20.8042 3.7877 20.4125C3.39603 20.0208 3.2002 19.55 3.2002 19V5C3.2002 4.45 3.39603 3.97917 3.7877 3.5875C4.17936 3.19583 4.6502 3 5.2002 3H19.2002C19.7502 3 20.221 3.19583 20.6127 3.5875C21.0044 3.97917 21.2002 4.45 21.2002 5V19C21.2002 19.55 21.0044 20.0208 20.6127 20.4125C20.221 20.8042 19.7502 21 19.2002 21H5.2002ZM12.2002 5V11.125C12.2002 11.325 12.2835 11.4708 12.4502 11.5625C12.6169 11.6542 12.7835 11.65 12.9502 11.55L14.1752 10.8C14.3419 10.7 14.5169 10.65 14.7002 10.65C14.8835 10.65 15.0585 10.7 15.2252 10.8L16.4502 11.55C16.6169 11.65 16.7835 11.6542 16.9502 11.5625C17.1169 11.4708 17.2002 11.325 17.2002 11.125V5H12.2002Z" fill="#040B15"/>
</g>
</g>
</svg>
