<svg width="26" height="28" viewBox="0 0 26 28" xmlns="http://www.w3.org/2000/svg">
<g id="Frame">
<path id="Vector" d="M4.44928 24.8542C3.84972 24.8542 3.33645 24.6407 2.90949 24.2137C2.48252 23.7867 2.26904 23.2735 2.26904 22.6739V10.6826C2.26904 10.083 2.48252 9.56977 2.90949 9.1428C3.33645 8.71584 3.84972 8.50236 4.44928 8.50236H9.89988V5.232C9.89988 4.63243 10.1134 4.11917 10.5403 3.6922C10.9673 3.26524 11.4806 3.05176 12.0801 3.05176H14.2604C14.8599 3.05176 15.3732 3.26524 15.8002 3.6922C16.2271 4.11917 16.4406 4.63243 16.4406 5.232V8.50236H21.8912C22.4908 8.50236 23.004 8.71584 23.431 9.1428C23.858 9.56977 24.0714 10.083 24.0714 10.6826V22.6739C24.0714 23.2735 23.858 23.7867 23.431 24.2137C23.004 24.6407 22.4908 24.8542 21.8912 24.8542H4.44928ZM4.44928 22.6739H21.8912V10.6826H16.4406C16.4406 11.2822 16.2271 11.7954 15.8002 12.2224C15.3732 12.6494 14.8599 12.8628 14.2604 12.8628H12.0801C11.4806 12.8628 10.9673 12.6494 10.5403 12.2224C10.1134 11.7954 9.89988 11.2822 9.89988 10.6826H4.44928V22.6739ZM6.62952 20.4937H13.1702V20.0031C13.1702 19.6943 13.0839 19.4081 12.9113 19.1447C12.7387 18.8812 12.498 18.6768 12.1891 18.5315C11.8258 18.3679 11.4578 18.2453 11.0854 18.1635C10.7129 18.0818 10.3178 18.0409 9.89988 18.0409C9.482 18.0409 9.08684 18.0818 8.71438 18.1635C8.34192 18.2453 7.974 18.3679 7.61063 18.5315C7.30176 18.6768 7.06103 18.8812 6.88843 19.1447C6.71582 19.4081 6.62952 19.6943 6.62952 20.0031V20.4937ZM15.3505 18.8585H19.711V17.2233H15.3505V18.8585ZM9.89988 17.2233C10.3541 17.2233 10.7402 17.0643 11.0581 16.7464C11.3761 16.4284 11.5351 16.0424 11.5351 15.5881C11.5351 15.1339 11.3761 14.7478 11.0581 14.4299C10.7402 14.1119 10.3541 13.953 9.89988 13.953C9.44567 13.953 9.05958 14.1119 8.74163 14.4299C8.42368 14.7478 8.2647 15.1339 8.2647 15.5881C8.2647 16.0424 8.42368 16.4284 8.74163 16.7464C9.05958 17.0643 9.44567 17.2233 9.89988 17.2233ZM15.3505 15.5881H19.711V13.953H15.3505V15.5881ZM12.0801 10.6826H14.2604V5.232H12.0801V10.6826Z" />
</g>
</svg>
