<svg width="24" height="23" viewBox="0 0 24 23" fill="none" xmlns="http://www.w3.org/2000/svg">
<path id="Vector" d="M24 14.0604V22.9334H18.8559V14.6544C18.8559 12.5742 18.1115 11.1553 16.2501 11.1553C14.8288 11.1553 13.9823 12.1124 13.6107 13.0371C13.4748 13.3678 13.44 13.8284 13.44 14.2913V22.9334H8.2934C8.2934 22.9334 8.36314 8.91267 8.2934 7.45889H13.44V9.65219L13.4063 9.70269H13.44V9.65219C14.123 8.60003 15.3435 7.09575 18.0767 7.09575C21.4616 7.09575 24 9.30828 24 14.0604ZM2.91117 0C1.15196 0 0 1.15437 0 2.67308C0 4.15812 1.11829 5.34736 2.84383 5.34736H2.8775C4.67278 5.34736 5.78746 4.15812 5.78746 2.67308C5.7562 1.15437 4.67278 0 2.91117 0ZM0.305426 22.9334H5.44957V7.45889H0.305426V22.9334Z" fill="#040B15"/>
</svg>
