<svg width="25" height="24" viewBox="0 0 25 24" fill="none" xmlns="http://www.w3.org/2000/svg">
<g id="precision_manufacturing">
<mask id="mask0_1859_8167" style="mask-type:alpha" maskUnits="userSpaceOnUse" x="0" y="0" width="25" height="24">
<rect id="Bounding box" x="0.200195" width="24" height="24" fill="#D9D9D9"/>
</mask>
<g mask="url(#mask0_1859_8167)">
<path id="precision_manufacturing_2" d="M5.67529 21C5.25863 21 4.90446 20.8542 4.61279 20.5625C4.32113 20.2709 4.17529 19.9167 4.17529 19.5C4.17529 19.0834 4.32113 18.7292 4.61279 18.4375C4.90446 18.1459 5.25863 18 5.67529 18H7.27529L4.72529 9.65002C4.27529 9.40002 3.90446 9.03336 3.61279 8.55002C3.32113 8.06669 3.17529 7.55002 3.17529 7.00002C3.17529 6.16669 3.46696 5.45836 4.05029 4.87502C4.63363 4.29169 5.34196 4.00002 6.17529 4.00002C6.82529 4.00002 7.40446 4.18752 7.91279 4.56252C8.42113 4.93752 8.77529 5.41669 8.97529 6.00002H12.1753V5.00002C12.1753 4.71669 12.2711 4.47919 12.4628 4.28752C12.6545 4.09586 12.892 4.00002 13.1753 4.00002C13.3253 4.00002 13.4711 4.03336 13.6128 4.10002C13.7545 4.16669 13.8753 4.26669 13.9753 4.40002L15.6753 2.80002C15.8253 2.65002 16.0045 2.55419 16.2128 2.51252C16.4211 2.47086 16.6253 2.50002 16.8253 2.60002L20.7253 4.40002C20.9253 4.50002 21.0628 4.64586 21.1378 4.83752C21.2128 5.02919 21.2086 5.21669 21.1253 5.40002C21.0253 5.60002 20.8795 5.72919 20.6878 5.78752C20.4961 5.84586 20.3086 5.83336 20.1253 5.75002L16.5253 4.10002L14.1753 6.30002V7.70002L16.5253 9.85002L20.1253 8.20002C20.3086 8.11669 20.5003 8.10836 20.7003 8.17502C20.9003 8.24169 21.042 8.36669 21.1253 8.55002C21.2253 8.75002 21.2336 8.94169 21.1503 9.12502C21.067 9.30836 20.9253 9.45002 20.7253 9.55002L16.8253 11.4C16.6253 11.5 16.4211 11.5292 16.2128 11.4875C16.0045 11.4459 15.8253 11.35 15.6753 11.2L13.9753 9.60002C13.8753 9.70002 13.7545 9.79169 13.6128 9.87502C13.4711 9.95836 13.3253 10 13.1753 10C12.892 10 12.6545 9.90419 12.4628 9.71252C12.2711 9.52086 12.1753 9.28336 12.1753 9.00002V8.00002H8.97529C8.92529 8.13336 8.87113 8.25836 8.81279 8.37502C8.75446 8.49169 8.67529 8.61669 8.57529 8.75002L13.5753 18H15.6753C16.092 18 16.4461 18.1459 16.7378 18.4375C17.0295 18.7292 17.1753 19.0834 17.1753 19.5C17.1753 19.9167 17.0295 20.2709 16.7378 20.5625C16.4461 20.8542 16.092 21 15.6753 21H5.67529ZM6.17529 8.00002C6.45863 8.00002 6.69613 7.90419 6.88779 7.71252C7.07946 7.52086 7.17529 7.28336 7.17529 7.00002C7.17529 6.71669 7.07946 6.47919 6.88779 6.28752C6.69613 6.09586 6.45863 6.00002 6.17529 6.00002C5.89196 6.00002 5.65446 6.09586 5.46279 6.28752C5.27113 6.47919 5.17529 6.71669 5.17529 7.00002C5.17529 7.28336 5.27113 7.52086 5.46279 7.71252C5.65446 7.90419 5.89196 8.00002 6.17529 8.00002Z" fill="#040B15"/>
</g>
</g>
</svg>
