<svg width="25" height="24" viewBox="0 0 25 24" fill="none" xmlns="http://www.w3.org/2000/svg">
<g id="shield_person">
<mask id="mask0_1859_8176" style="mask-type:alpha" maskUnits="userSpaceOnUse" x="0" y="0" width="25" height="24">
<rect id="Bounding box" x="0.200195" width="24" height="24" fill="#D9D9D9"/>
</mask>
<g mask="url(#mask0_1859_8176)">
<path id="shield_person_2" d="M12.2002 13C13.1669 13 13.9919 12.6584 14.6752 11.975C15.3585 11.2917 15.7002 10.4667 15.7002 9.50002C15.7002 8.53336 15.3585 7.70836 14.6752 7.02502C13.9919 6.34169 13.1669 6.00002 12.2002 6.00002C11.2335 6.00002 10.4085 6.34169 9.7252 7.02502C9.04186 7.70836 8.7002 8.53336 8.7002 9.50002C8.7002 10.4667 9.04186 11.2917 9.7252 11.975C10.4085 12.6584 11.2335 13 12.2002 13ZM12.2002 19.9C13.1835 19.5834 14.0544 19.0875 14.8127 18.4125C15.571 17.7375 16.2335 16.975 16.8002 16.125C16.0835 15.7584 15.3377 15.4792 14.5627 15.2875C13.7877 15.0959 13.0002 15 12.2002 15C11.4002 15 10.6127 15.0959 9.8377 15.2875C9.0627 15.4792 8.31686 15.7584 7.6002 16.125C8.16686 16.975 8.82936 17.7375 9.5877 18.4125C10.346 19.0875 11.2169 19.5834 12.2002 19.9ZM12.2002 21.9C12.0835 21.9 11.9752 21.8917 11.8752 21.875C11.7752 21.8584 11.6752 21.8334 11.5752 21.8C9.3252 21.05 7.53353 19.6625 6.2002 17.6375C4.86686 15.6125 4.2002 13.4334 4.2002 11.1V6.37502C4.2002 5.95836 4.32103 5.58336 4.5627 5.25002C4.80436 4.91669 5.11686 4.67502 5.5002 4.52502L11.5002 2.27502C11.7335 2.19169 11.9669 2.15002 12.2002 2.15002C12.4335 2.15002 12.6669 2.19169 12.9002 2.27502L18.9002 4.52502C19.2835 4.67502 19.596 4.91669 19.8377 5.25002C20.0794 5.58336 20.2002 5.95836 20.2002 6.37502V11.1C20.2002 13.4334 19.5335 15.6125 18.2002 17.6375C16.8669 19.6625 15.0752 21.05 12.8252 21.8C12.7252 21.8334 12.6252 21.8584 12.5252 21.875C12.4252 21.8917 12.3169 21.9 12.2002 21.9Z" fill="#040B15"/>
</g>
</g>
</svg>
