<svg width="25" height="25" viewBox="0 0 25 25" xmlns="http://www.w3.org/2000/svg">
<g id="signature">
<mask id="mask0_2066_9696" style="mask-type:alpha" maskUnits="userSpaceOnUse" x="0" y="0" width="25" height="25">
<rect id="Bounding box" x="0.700195" y="0.755859" width="24" height="24" fill="#D9D9D9"/>
</mask>
<g mask="url(#mask0_2066_9696)">
<path id="signature_2" d="M14.7752 12.4809C15.9919 11.5809 16.9419 10.5934 17.6252 9.51836C18.3086 8.44336 18.6502 7.37253 18.6502 6.30586C18.6502 5.77253 18.5627 5.38086 18.3877 5.13086C18.2127 4.88086 17.9752 4.75586 17.6752 4.75586C16.8919 4.75586 16.2002 5.41836 15.6002 6.74336C15.0002 8.06836 14.7002 9.56419 14.7002 11.2309C14.7002 11.4642 14.7044 11.685 14.7127 11.8934C14.7211 12.1017 14.7419 12.2975 14.7752 12.4809ZM4.80024 17.0559C4.61691 17.2392 4.38358 17.3309 4.10024 17.3309C3.81691 17.3309 3.58358 17.2392 3.40024 17.0559C3.21691 16.8725 3.12524 16.6392 3.12524 16.3559C3.12524 16.0725 3.21691 15.8392 3.40024 15.6559L4.30024 14.7559L3.40024 13.8559C3.21691 13.6725 3.12524 13.4392 3.12524 13.1559C3.12524 12.8725 3.21691 12.6392 3.40024 12.4559C3.58358 12.2725 3.81691 12.1809 4.10024 12.1809C4.38358 12.1809 4.61691 12.2725 4.80024 12.4559L5.70024 13.3559L6.60024 12.4559C6.78358 12.2725 7.01691 12.1809 7.30024 12.1809C7.58358 12.1809 7.81691 12.2725 8.00024 12.4559C8.18358 12.6392 8.27524 12.8725 8.27524 13.1559C8.27524 13.4392 8.18358 13.6725 8.00024 13.8559L7.10024 14.7559L8.00024 15.6559C8.18358 15.8392 8.27524 16.0725 8.27524 16.3559C8.27524 16.6392 8.18358 16.8725 8.00024 17.0559C7.81691 17.2392 7.58358 17.3309 7.30024 17.3309C7.01691 17.3309 6.78358 17.2392 6.60024 17.0559L5.70024 16.1559L4.80024 17.0559ZM16.1502 16.7559C15.6502 16.7559 15.1919 16.66 14.7752 16.4684C14.3586 16.2767 14.0002 15.9642 13.7002 15.5309C13.4336 15.6642 13.1586 15.7975 12.8752 15.9309L12.0252 16.3309C11.7586 16.4475 11.4961 16.4517 11.2377 16.3434C10.9794 16.235 10.8002 16.0475 10.7002 15.7809C10.6002 15.5142 10.6127 15.2559 10.7377 15.0059C10.8627 14.7559 11.0586 14.5725 11.3252 14.4559C11.6086 14.3225 11.8836 14.1934 12.1502 14.0684C12.4169 13.9434 12.6752 13.8142 12.9252 13.6809C12.8419 13.3142 12.7794 12.9142 12.7377 12.4809C12.6961 12.0475 12.6752 11.5809 12.6752 11.0809C12.6752 8.68086 13.1502 6.69336 14.1002 5.11836C15.0502 3.54336 16.2419 2.75586 17.6752 2.75586C18.5419 2.75586 19.2502 3.07669 19.8002 3.71836C20.3502 4.36003 20.6252 5.25586 20.6252 6.40586C20.6252 7.83919 20.1711 9.25586 19.2627 10.6559C18.3544 12.0559 17.0919 13.3142 15.4752 14.4309C15.5919 14.5475 15.7127 14.635 15.8377 14.6934C15.9627 14.7517 16.0919 14.7809 16.2252 14.7809C16.5752 14.7809 16.9836 14.5892 17.4502 14.2059C17.9169 13.8225 18.3669 13.3059 18.8002 12.6559C18.9669 12.4225 19.1794 12.26 19.4377 12.1684C19.6961 12.0767 19.9502 12.0892 20.2002 12.2059C20.4502 12.3392 20.6336 12.535 20.7502 12.7934C20.8669 13.0517 20.9002 13.3225 20.8502 13.6059C20.8169 13.8059 20.8002 13.9975 20.8002 14.1809C20.8002 14.3642 20.8252 14.5392 20.8752 14.7059C20.9586 14.6725 21.0544 14.6184 21.1627 14.5434C21.2711 14.4684 21.3836 14.3725 21.5002 14.2559C21.7002 14.0725 21.9377 13.9684 22.2127 13.9434C22.4877 13.9184 22.7336 13.9892 22.9502 14.1559C23.1836 14.3392 23.3086 14.5642 23.3252 14.8309C23.3419 15.0975 23.2586 15.3225 23.0752 15.5059C22.6919 15.8892 22.2877 16.1934 21.8627 16.4184C21.4377 16.6434 21.0336 16.7559 20.6502 16.7559C20.3002 16.7559 19.9877 16.6517 19.7127 16.4434C19.4377 16.235 19.2086 15.9142 19.0252 15.4809C18.5586 15.8975 18.0836 16.2142 17.6002 16.4309C17.1169 16.6475 16.6336 16.7559 16.1502 16.7559ZM4.70024 21.7559C4.41691 21.7559 4.17941 21.66 3.98774 21.4684C3.79608 21.2767 3.70024 21.0392 3.70024 20.7559C3.70024 20.4725 3.79608 20.235 3.98774 20.0434C4.17941 19.8517 4.41691 19.7559 4.70024 19.7559C4.98358 19.7559 5.22108 19.8517 5.41274 20.0434C5.60441 20.235 5.70024 20.4725 5.70024 20.7559C5.70024 21.0392 5.60441 21.2767 5.41274 21.4684C5.22108 21.66 4.98358 21.7559 4.70024 21.7559ZM8.70024 21.7559C8.41691 21.7559 8.17941 21.66 7.98774 21.4684C7.79608 21.2767 7.70024 21.0392 7.70024 20.7559C7.70024 20.4725 7.79608 20.235 7.98774 20.0434C8.17941 19.8517 8.41691 19.7559 8.70024 19.7559C8.98358 19.7559 9.22108 19.8517 9.41274 20.0434C9.60441 20.235 9.70024 20.4725 9.70024 20.7559C9.70024 21.0392 9.60441 21.2767 9.41274 21.4684C9.22108 21.66 8.98358 21.7559 8.70024 21.7559ZM12.7002 21.7559C12.4169 21.7559 12.1794 21.66 11.9877 21.4684C11.7961 21.2767 11.7002 21.0392 11.7002 20.7559C11.7002 20.4725 11.7961 20.235 11.9877 20.0434C12.1794 19.8517 12.4169 19.7559 12.7002 19.7559C12.9836 19.7559 13.2211 19.8517 13.4127 20.0434C13.6044 20.235 13.7002 20.4725 13.7002 20.7559C13.7002 21.0392 13.6044 21.2767 13.4127 21.4684C13.2211 21.66 12.9836 21.7559 12.7002 21.7559ZM16.7002 21.7559C16.4169 21.7559 16.1794 21.66 15.9877 21.4684C15.7961 21.2767 15.7002 21.0392 15.7002 20.7559C15.7002 20.4725 15.7961 20.235 15.9877 20.0434C16.1794 19.8517 16.4169 19.7559 16.7002 19.7559C16.9836 19.7559 17.2211 19.8517 17.4127 20.0434C17.6044 20.235 17.7002 20.4725 17.7002 20.7559C17.7002 21.0392 17.6044 21.2767 17.4127 21.4684C17.2211 21.66 16.9836 21.7559 16.7002 21.7559ZM20.7002 21.7559C20.4169 21.7559 20.1794 21.66 19.9877 21.4684C19.7961 21.2767 19.7002 21.0392 19.7002 20.7559C19.7002 20.4725 19.7961 20.235 19.9877 20.0434C20.1794 19.8517 20.4169 19.7559 20.7002 19.7559C20.9836 19.7559 21.2211 19.8517 21.4127 20.0434C21.6044 20.235 21.7002 20.4725 21.7002 20.7559C21.7002 21.0392 21.6044 21.2767 21.4127 21.4684C21.2211 21.66 20.9836 21.7559 20.7002 21.7559Z" />
</g>
</g>
</svg>
