<svg width="25" height="22" viewBox="0 0 25 22" fill="none" xmlns="http://www.w3.org/2000/svg">
<g id="i-teams">
<g id="Group-3">
<g id="Fill-1 Clipped">
<g id="Clip path group">
<mask id="mask0_2551_924" style="mask-type:luminance" maskUnits="userSpaceOnUse" x="18" y="8" width="7" height="10">
<g id="clip-path-5">
<path id="path-1" d="M18 8H25V18H18V8Z" fill="white"/>
</g>
</mask>
<g mask="url(#mask0_2551_924)">
<g id="Fill-1 Clipped_2">
<path id="Fill-1" d="M21.087 18.0001C22.1117 18.0129 23.0996 17.6182 23.8334 16.9028C24.5672 16.1874 24.9868 15.2098 25 14.1851V8.93308C24.9984 8.80898 24.9724 8.6864 24.9235 8.57234C24.8746 8.45829 24.8036 8.35499 24.7148 8.26835C24.6259 8.18171 24.5208 8.11343 24.4056 8.0674C24.2903 8.02137 24.1671 7.99849 24.043 8.00008H18V14.9911C18.0105 15.7994 18.3417 16.5704 18.9205 17.1347C19.4994 17.6989 20.2787 18.0102 21.087 18.0001Z" fill="#040B15"/>
</g>
</g>
</g>
</g>
</g>
<path id="Fill-4" d="M24 4.5C24 4.99445 23.8534 5.4778 23.5787 5.88893C23.304 6.30005 22.9135 6.62048 22.4567 6.8097C21.9999 6.99892 21.4972 7.04843 21.0123 6.95196C20.5273 6.8555 20.0819 6.6174 19.7322 6.26777C19.3826 5.91814 19.1445 5.47268 19.048 4.98773C18.9516 4.50277 19.0011 4.00011 19.1903 3.54329C19.3795 3.08648 19.7 2.69603 20.1111 2.42133C20.5222 2.14662 21.0055 2 21.5 2C22.163 2 22.7989 2.26339 23.2678 2.73223C23.7366 3.20107 24 3.83696 24 4.5Z" fill="#040B15"/>
<g id="Group-8">
<g id="Fill-6 Clipped">
<g id="Clip path group_2">
<mask id="mask1_2551_924" style="mask-type:luminance" maskUnits="userSpaceOnUse" x="7" y="8" width="12" height="14">
<g id="clip-path-6">
<path id="path-3" d="M7 8H19V22H7V8Z" fill="white"/>
</g>
</mask>
<g mask="url(#mask1_2551_924)">
<g id="Fill-6 Clipped_2">
<path id="Fill-6" d="M12.6639 22H13.3359C14.8726 21.9643 16.3322 21.3202 17.3942 20.209C18.4562 19.0979 19.0337 17.6107 18.9999 16.074V8.971C19.0053 8.7191 18.9105 8.47537 18.7363 8.29332C18.5621 8.11126 18.3228 8.00577 18.0709 8H6.99994V16.074C6.96614 17.6107 7.54367 19.0979 8.60568 20.209C9.66769 21.3202 11.1273 21.9643 12.6639 22Z" fill="#41424D"/>
</g>
</g>
</g>
</g>
</g>
<g id="Group-11">
<g id="Fill-9 Clipped">
<g id="Clip path group_3">
<mask id="mask2_2551_924" style="mask-type:luminance" maskUnits="userSpaceOnUse" x="10" y="0" width="6" height="7">
<g id="clip-path-7">
<path id="path-5" d="M10 0H16V7H10V0Z" fill="white"/>
</g>
</mask>
<g mask="url(#mask2_2551_924)">
<g id="Fill-9 Clipped_2">
<path id="Fill-9" d="M15.9999 3.5C16.061 4.36078 15.7804 5.21095 15.2188 5.86614C14.6572 6.52134 13.8599 6.92874 12.9999 7C12.1399 6.92874 11.3427 6.52134 10.7811 5.86614C10.2195 5.21095 9.93883 4.36078 9.99994 3.5C9.93883 2.63922 10.2195 1.78905 10.7811 1.13386C11.3427 0.47866 12.1399 0.0712589 12.9999 0C13.8599 0.0712589 14.6572 0.47866 15.2188 1.13386C15.7804 1.78905 16.061 2.63922 15.9999 3.5Z" fill="#41424D"/>
</g>
</g>
</g>
</g>
</g>
<path id="Rectangle" d="M10 7H1V16H10V7Z" fill="white"/>
<path id="Fill-12" d="M0.857 18C0.744851 18.0004 0.633722 17.9787 0.529959 17.9361C0.426196 17.8936 0.331831 17.831 0.252251 17.752C0.172671 17.673 0.109435 17.579 0.0661535 17.4756C0.0228723 17.3721 0.000393274 17.2612 0 17.149L0 5.851C0.00105863 5.62459 0.0918804 5.40784 0.252542 5.2483C0.413203 5.08877 0.630585 4.99947 0.857 5H12.143C12.3694 4.99947 12.5868 5.08877 12.7475 5.2483C12.9081 5.40784 12.9989 5.62459 13 5.851V17.151C12.9996 17.2632 12.9771 17.3741 12.9338 17.4776C12.8906 17.581 12.8273 17.675 12.7477 17.754C12.6682 17.833 12.5738 17.8956 12.47 17.9381C12.3663 17.9807 12.2551 18.0024 12.143 18.002L0.857 18Z" fill="#040B15"/>
</g>
</svg>
