<?xml version="1.0" encoding="UTF-8"?>
<svg width="573px" height="573px" viewBox="0 0 573 573" version="1.1" xmlns="http://www.w3.org/2000/svg" xmlns:xlink="http://www.w3.org/1999/xlink">
    <!-- Generator: Sketch 62 (91390) - https://sketch.com -->
    <title>Icono Teams</title>
    <desc>Created with Sketch.</desc>
    <defs>
        <polygon id="path-1" points="0 0 160 0 160 227 0 227"></polygon>
        <polygon id="path-3" points="0 0 266 0 266 320 0 320"></polygon>
        <polygon id="path-5" points="0 0 147 0 147 160 0 160"></polygon>
    </defs>
    <g id="Icono-Teams" stroke="none" stroke-width="1" fill="none" fill-rule="evenodd">
        <g id="Group-3" transform="translate(413.000000, 239.000000)">
            <mask id="mask-2" fill="white">
                <use xlink:href="#path-1"></use>
            </mask>
            <g id="Clip-2"></g>
            <path d="M70.560736,227 L70.560736,227 C119.955241,227 160,188.233192 160,140.410266 L160,21.182301 C160,9.48369252 150.20465,0 138.117618,0 L0,0 L0,158.688138 C0,196.418751 31.5902027,227 70.560736,227" id="Fill-1" fill="#888888" mask="url(#mask-2)"></path>
        </g>
        <path d="M547,140.49799 C547,173.36121 519.913499,200 486.497956,200 C453.086501,200 426,173.36121 426,140.49799 C426,107.63879 453.086501,81 486.497956,81 C519.913499,81 547,107.63879 547,140.49799" id="Fill-4" fill="#888888"></path>
        <g id="Group-8" transform="translate(173.000000, 226.000000)">
            <mask id="mask-4" fill="white">
                <use xlink:href="#path-3"></use>
            </mask>
            <g id="Clip-7"></g>
            <path d="M125.549366,320 L140.450634,320 C209.792803,320 266,259.356564 266,184.546441 L266,22.2048396 C266,9.94373092 256.78681,0 245.418137,0 L0,0 L0,184.546441 C0,259.356564 56.2109395,320 125.549366,320" id="Fill-6" fill="#999999" mask="url(#mask-4)"></path>
        </g>
        <g id="Group-11" transform="translate(227.000000, 40.000000)">
            <mask id="mask-6" fill="white">
                <use xlink:href="#path-5"></use>
            </mask>
            <g id="Clip-10"></g>
            <path d="M147,80 C147,124.185436 114.093768,160 73.4964244,160 C32.9062318,160 0,124.185436 0,80 C0,35.818456 32.9062318,0 73.4964244,0 C114.093768,0 147,35.818456 147,80" id="Fill-9" fill="#999999" mask="url(#mask-6)"></path>
        </g>
        <rect id="Rectangle" fill="#FFFFFF" x="28" y="200" width="199" height="199"></rect>
        <path d="M80,226 L80,249.543925 L126.032159,249.543925 L126.032159,360 L153.229217,360 L153.229217,249.543925 L201,249.543925 L201,226 L80,226 Z M274.615205,440 L19.3847948,440 C8.69663109,440 0,431.371528 0,420.758102 L0,165.241898 C0,154.632523 8.69663109,146 19.3847948,146 L274.615205,146 C285.303369,146 294,154.632523 294,165.241898 L294,420.758102 C294,431.371528 285.303369,440 274.615205,440 L274.615205,440 Z" id="Fill-12" fill="#888888"></path>
        <polygon id="Path" points="80 226 80 249.543925 126.032159 249.543925 126.032159 360 153.229217 360 153.229217 249.543925 201 249.543925 201 226"></polygon>
        <path d="M19.3847948,440 C8.69663109,440 0,431.371528 0,420.758102 L0,165.241898 C0,154.632523 8.69663109,146 19.3847948,146 L274.615205,146 C285.303369,146 294,154.632523 294,165.241898 L294,420.758102 C294,431.371528 285.303369,440 274.615205,440 L19.3847948,440 Z" id="Path"></path>
    </g>
</svg>