<svg width="21" height="24" viewBox="0 0 21 24" fill="none" xmlns="http://www.w3.org/2000/svg">
<path id="Vector" d="M18.2106 5.13274C18.0487 5.04902 17.891 4.95725 17.7382 4.85776C17.2938 4.564 16.8864 4.21786 16.5247 3.82681C15.6198 2.79136 15.2818 1.74091 15.1573 1.00545H15.1623C15.0583 0.39498 15.1013 0 15.1078 0H10.986V15.9382C10.986 16.1522 10.986 16.3637 10.977 16.5727C10.977 16.5987 10.9745 16.6227 10.973 16.6507C10.973 16.6622 10.973 16.6742 10.9705 16.6862V16.6952C10.9271 17.267 10.7437 17.8194 10.4367 18.3038C10.1296 18.7882 9.70825 19.1897 9.2096 19.473C8.68989 19.7687 8.1021 19.9238 7.50418 19.923C5.58378 19.923 4.02735 18.3571 4.02735 16.4232C4.02735 14.4893 5.58378 12.9234 7.50418 12.9234C7.8677 12.923 8.22899 12.9802 8.57463 13.0928L8.57963 8.89606C7.53036 8.76052 6.46439 8.84391 5.44897 9.14096C4.43354 9.43802 3.4907 9.94229 2.67992 10.622C1.96949 11.2392 1.37223 11.9758 0.91501 12.7984C0.741019 13.0983 0.0845517 14.3038 0.00505568 16.2602C-0.0449418 17.3706 0.288541 18.5211 0.447533 18.9966V19.0066C0.547528 19.2865 0.935009 20.242 1.56648 21.0474C2.07567 21.6936 2.67727 22.2611 3.35189 22.7319V22.7219L3.36189 22.7319C5.35729 24.0878 7.56968 23.9988 7.56968 23.9988C7.95266 23.9833 9.23559 23.9988 10.6925 23.3083C12.3084 22.5429 13.2284 21.4024 13.2284 21.4024C13.8161 20.721 14.2834 19.9444 14.6103 19.106C14.9833 18.1256 15.1078 16.9497 15.1078 16.4797V8.0241C15.1578 8.0541 15.8238 8.49458 15.8238 8.49458C15.8238 8.49458 16.7832 9.10955 18.2801 9.51003C19.3541 9.79501 20.801 9.85501 20.801 9.85501V5.76321C20.294 5.81821 19.2646 5.65822 18.2106 5.13274Z" fill="#040B15"/>
</svg>
