<svg width="24" height="17" viewBox="0 0 24 17" fill="none" xmlns="http://www.w3.org/2000/svg">
<path id="Vector" d="M23.4937 2.62272C23.3571 2.11535 23.0897 1.65275 22.7181 1.28122C22.3466 0.909686 21.884 0.642254 21.3766 0.505687C19.5082 1.53261e-07 12 0 12 0C12 0 4.49183 1.53261e-07 2.62336 0.505687C2.11599 0.642254 1.6534 0.909686 1.28186 1.28122C0.910331 1.65275 0.642899 2.11535 0.506332 2.62272C0.157447 4.52827 -0.0118575 6.46236 0.00064491 8.39955C-0.0118575 10.3367 0.157447 12.2708 0.506332 14.1764C0.642899 14.6838 0.910331 15.1463 1.28186 15.5179C1.6534 15.8894 2.11599 16.1568 2.62336 16.2934C4.49183 16.7991 12 16.7991 12 16.7991C12 16.7991 19.5082 16.7991 21.3766 16.2934C21.884 16.1568 22.3466 15.8894 22.7181 15.5179C23.0897 15.1463 23.3571 14.6838 23.4937 14.1764C23.8426 12.2708 24.0119 10.3367 23.9994 8.39955C24.0119 6.46236 23.8426 4.52827 23.4937 2.62272ZM9.60013 11.9994V4.79974L15.8312 8.39955L9.60013 11.9994Z" fill="#040B15"/>
</svg>
